<svg width="212" height="44" fill="none" xmlns="http://www.w3.org/2000/svg"><rect width="212" height="44" rx="8" fill="#000"/><path d="M60.44 15.23V26.5h1.4v-4.02h2.84c2.12 0 3.62-1.5 3.62-3.6 0-2.15-1.47-3.65-3.6-3.65h-4.26zm1.4 1.25h2.49c1.63 0 2.53.85 2.53 2.4 0 1.49-.93 2.35-2.53 2.35h-2.49v-4.75zm11.5 10.17c2.4 0 3.89-1.66 3.89-4.36 0-2.71-1.49-4.36-3.89-4.36-2.4 0-3.88 1.65-3.88 4.36 0 2.7 1.49 4.36 3.88 4.36zm0-1.21c-1.59 0-2.49-1.16-2.49-3.15 0-2 .9-3.15 2.5-3.15 1.59 0 2.49 1.15 2.49 3.15s-.9 3.15-2.5 3.15zm15.96-7.36h-1.35l-1.66 6.73h-.13l-1.88-6.73H83l-1.88 6.73h-.13l-1.65-6.73h-1.36l2.36 8.42h1.36l1.87-6.52h.13l1.88 6.52h1.37l2.36-8.42zm4.52 1.04c1.34 0 2.23.98 2.26 2.47h-4.64c.1-1.49 1.04-2.47 2.38-2.47zm2.22 5.2c-.35.74-1.09 1.14-2.17 1.14-1.43 0-2.36-1.05-2.43-2.72v-.06h6.05v-.52c0-2.61-1.38-4.23-3.65-4.23-2.32 0-3.8 1.72-3.8 4.37 0 2.66 1.46 4.35 3.8 4.35 1.84 0 3.15-.9 3.54-2.33h-1.34zm3.24 2.18h1.35v-5.22c0-1.19.93-2.05 2.2-2.05.27 0 .76.05.87.08v-1.34a5.77 5.77 0 00-.67-.04c-1.12 0-2.1.58-2.34 1.4h-.13v-1.25h-1.28v8.42zm8.9-7.38c1.34 0 2.23.98 2.26 2.47h-4.64c.1-1.49 1.04-2.47 2.38-2.47zm2.22 5.2c-.35.74-1.09 1.14-2.17 1.14-1.43 0-2.36-1.05-2.43-2.72v-.06h6.05v-.52c0-2.61-1.38-4.23-3.65-4.23-2.32 0-3.8 1.72-3.8 4.37 0 2.66 1.46 4.35 3.8 4.35 1.84 0 3.15-.9 3.54-2.33h-1.34zm6.36 2.33c1.16 0 2.16-.56 2.7-1.5h.12v1.35h1.28V14.73h-1.34v4.68h-.12a2.88 2.88 0 00-2.64-1.48c-2.14 0-3.54 1.72-3.54 4.36 0 2.65 1.38 4.36 3.54 4.36zm.31-7.5c1.53 0 2.48 1.2 2.48 3.14 0 1.94-.95 3.15-2.48 3.15-1.54 0-2.46-1.18-2.46-3.15 0-1.96.93-3.15 2.46-3.15zm14.46 7.5c2.14 0 3.53-1.73 3.53-4.36 0-2.65-1.39-4.36-3.53-4.36a2.9 2.9 0 00-2.64 1.48h-.12v-4.68h-1.35V26.5h1.29v-1.34h.12c.53.93 1.53 1.49 2.7 1.49zm-.3-7.5c1.53 0 2.44 1.17 2.44 3.14 0 1.97-.91 3.15-2.45 3.15-1.53 0-2.48-1.2-2.48-3.15s.95-3.15 2.48-3.15zm6.03 10.4c1.5 0 2.17-.58 2.88-2.53l3.3-8.94H142L139.7 25h-.13l-2.3-6.93h-1.46l3.12 8.43-.16.5c-.35 1.01-.78 1.38-1.55 1.38-.19 0-.4 0-.56-.04v1.15a4 4 0 00.6.05zm17.4-3.05l3.89-11.27h-2.15l-2.81 8.92h-.13l-2.84-8.92h-2.23l3.94 11.27h2.32zm8-7.18c1.17 0 1.94.81 1.98 2.08h-4.03c.09-1.25.9-2.08 2.06-2.08zm2 4.83c-.29.63-.95.98-1.91.98-1.28 0-2.1-.89-2.15-2.31v-.1h5.97v-.63c0-2.7-1.46-4.3-3.9-4.3-2.47 0-4.01 1.72-4.01 4.47s1.52 4.41 4.03 4.41c2.02 0 3.45-.97 3.8-2.52h-1.84zm3.54 2.35h1.94v-4.94c0-1.2.87-1.97 2.13-1.97.33 0 .84.05 1 .1v-1.8a3.35 3.35 0 00-.81-.08c-1.1 0-2.03.63-2.26 1.47h-.13v-1.33h-1.87v8.55zm13.5-5.67c-.2-1.8-1.53-3.05-3.73-3.05-2.57 0-4.07 1.65-4.07 4.42 0 2.82 1.51 4.47 4.08 4.47 2.17 0 3.5-1.2 3.72-2.99h-1.84c-.2.89-.88 1.37-1.89 1.37-1.32 0-2.11-1.05-2.11-2.85 0-1.77.78-2.8 2.11-2.8 1.07 0 1.7.6 1.89 1.43h1.84zm5.12-1.51c1.16 0 1.93.81 1.97 2.08h-4.03c.09-1.25.9-2.08 2.06-2.08zm1.98 4.83c-.28.63-.94.98-1.9.98-1.28 0-2.1-.89-2.15-2.31v-.1h5.97v-.63c0-2.7-1.46-4.3-3.9-4.3-2.47 0-4.01 1.72-4.01 4.47s1.51 4.41 4.03 4.41c2.02 0 3.45-.97 3.8-2.52h-1.84zm3.63 2.35h1.93V14.65h-1.93V26.5zM23.32 13l9.33 16H14l9.32-16z" fill="#fff"/><path stroke="#5E5E5E" d="M43.5 0v44"/></svg>