<?xml version="1.0" standalone="no"?>
<!DOCTYPE svg PUBLIC "-//W3C//DTD SVG 20010904//EN"
 "http://www.w3.org/TR/2001/REC-SVG-20010904/DTD/svg10.dtd">
<svg version="1.0" xmlns="http://www.w3.org/2000/svg"
 width="680.000000pt" height="680.000000pt" viewBox="0 0 680.000000 680.000000"
 preserveAspectRatio="xMidYMid meet">
<metadata>
Created by potrace 1.11, written by Peter Selinger 2001-2013
</metadata>
<g transform="translate(0.000000,680.000000) scale(0.100000,-0.100000)"
fill="#000000" stroke="none">
<path d="M3011 6167 c-52 -10 -82 -40 -122 -119 -33 -65 -45 -76 -52 -48 -7
26 -109 74 -141 66 -35 -9 -123 -92 -153 -145 -15 -25 -38 -57 -50 -71 -13
-14 -23 -33 -23 -43 0 -13 -5 -17 -16 -13 -16 6 -109 -20 -130 -36 -7 -5 -15
-25 -20 -46 -4 -20 -9 -44 -11 -52 -8 -30 -4 -88 12 -185 15 -84 15 -81 -49
-133 -135 -108 -244 -173 -355 -209 -229 -75 -424 -193 -468 -283 -45 -92 -62
-270 -39 -410 3 -19 8 -57 11 -85 3 -27 10 -68 16 -90 15 -53 112 -237 171
-323 17 -24 26 -47 22 -52 -5 -4 -34 -18 -65 -32 l-55 -25 1 71 c1 100 -25
184 -98 311 -71 122 -78 147 -123 385 -3 14 -10 45 -15 70 -6 25 -12 54 -15
65 -2 11 -17 85 -34 165 -17 80 -32 154 -34 165 -25 123 -49 237 -56 265 -5
19 -12 53 -16 75 -3 22 -7 40 -7 41 -94 43 -236 98 -247 95 -8 -1 -73 -25
-145 -53 -239 -93 -300 -116 -363 -139 -69 -26 -68 -25 -77 -129 -3 -36 -8
-83 -10 -105 -33 -307 -33 -304 -10 -425 2 -14 11 -65 19 -115 8 -49 20 -117
26 -150 6 -33 13 -76 16 -95 2 -19 9 -57 14 -85 5 -27 12 -66 14 -85 3 -19 8
-47 11 -62 3 -16 7 -40 10 -55 3 -16 9 -55 15 -88 5 -33 18 -113 29 -177 11
-64 23 -136 26 -160 4 -24 15 -86 25 -138 10 -52 21 -108 24 -125 2 -16 23
-129 45 -250 23 -121 43 -238 47 -260 3 -22 6 -44 7 -48 3 -12 -9 -18 -156
-87 -70 -33 -126 -64 -123 -68 3 -5 7 -19 10 -33 6 -29 78 -299 112 -424 14
-49 29 -106 34 -125 4 -19 19 -75 32 -125 24 -88 25 -90 69 -114 108 -57 578
-291 585 -291 4 0 193 93 418 207 226 114 443 223 483 243 40 19 73 38 73 42
0 5 -142 315 -250 543 -26 56 -61 130 -115 250 -24 53 -108 325 -103 331 2 2
37 -5 78 -15 41 -10 127 -21 190 -24 63 -4 131 -9 150 -13 19 -3 53 -6 75 -7
32 0 47 -8 77 -36 20 -20 75 -72 123 -116 80 -74 102 -103 126 -163 7 -19 6
-22 -8 -20 -28 5 -31 -93 -4 -131 23 -31 26 -51 12 -66 -16 -18 -43 -124 -57
-224 -3 -25 -8 -57 -10 -71 -2 -14 -7 -45 -10 -70 -3 -25 -10 -65 -14 -90 -5
-24 -6 -48 -3 -53 2 -4 0 -22 -5 -40 -6 -17 -13 -44 -16 -59 -4 -19 -16 -30
-39 -37 -22 -8 -39 -23 -49 -44 -15 -31 -14 -38 8 -109 39 -122 76 -178 154
-229 14 -10 34 -25 45 -36 27 -25 114 -84 128 -87 7 -2 25 -9 40 -16 26 -13
28 -17 23 -54 -4 -23 -19 -77 -35 -121 -15 -44 -27 -91 -25 -105 4 -37 52
-140 65 -140 6 0 44 10 84 21 l74 22 81 179 c44 99 92 215 106 258 l24 79 -47
45 c-52 49 -67 54 -100 31 -21 -15 -23 -14 -38 15 -24 46 -43 168 -36 225 4
32 17 66 36 93 l30 42 60 -2 60 -3 28 53 c24 43 33 52 56 52 23 0 32 -8 54
-48 15 -27 31 -71 37 -98 10 -46 14 -51 65 -78 35 -18 55 -35 55 -46 0 -10 7
-36 15 -59 8 -23 16 -61 17 -86 2 -25 7 -45 11 -45 5 0 7 -12 6 -28 -2 -15 0
-32 3 -37 6 -10 20 -100 21 -140 2 -28 -12 -97 -23 -116 -27 -50 -29 -169 -6
-379 l16 -145 80 -78 81 -78 32 22 c100 70 109 79 102 118 -11 65 -24 206 -29
304 l-3 68 50 55 c50 55 84 124 66 135 -6 3 11 17 36 30 39 20 52 35 82 93 24
48 36 85 37 118 0 26 3 48 6 48 2 0 33 -30 67 -67 35 -37 71 -68 80 -69 45 -7
102 -15 124 -19 13 -2 78 -14 144 -25 66 -12 131 -23 145 -26 14 -2 52 -9 85
-14 178 -30 178 -30 205 -35 14 -3 52 -10 85 -15 33 -5 69 -12 80 -14 11 -2
40 -7 65 -11 25 -4 52 -9 60 -10 8 -1 35 -6 60 -10 25 -4 54 -9 65 -12 11 -2
37 -6 58 -8 21 -3 42 -7 45 -9 4 -2 32 -7 62 -11 30 -4 58 -9 61 -11 4 -2 22
-6 40 -8 31 -4 165 -27 244 -41 45 -8 97 -17 125 -21 50 -8 86 -14 110 -19 14
-3 41 -8 60 -11 19 -3 73 -12 118 -20 46 -9 86 -13 89 -11 7 8 38 147 58 261
2 16 15 81 29 145 13 64 28 134 31 156 9 53 10 58 45 220 17 77 32 158 35 179
3 21 7 47 10 57 5 13 -8 27 -52 55 -32 20 -72 44 -90 53 -23 12 -31 21 -28 36
5 25 16 92 20 125 1 14 7 52 13 85 13 70 21 124 28 180 3 22 7 51 10 65 9 39
12 58 29 165 8 55 17 111 19 125 3 14 7 43 11 65 3 22 7 47 10 55 2 8 6 35 9
60 3 25 8 54 10 65 2 11 7 42 10 68 4 27 9 59 12 70 2 12 6 40 8 62 2 22 9 68
15 102 7 34 14 79 16 100 2 21 6 47 9 58 2 11 7 45 12 75 4 30 8 57 9 60 1 3
5 32 10 65 4 33 9 67 11 75 2 8 5 31 8 50 2 19 7 50 10 68 11 63 15 87 21 131
5 42 9 65 21 134 3 17 7 46 9 62 4 39 14 104 21 135 10 50 16 116 16 180 -1
265 -7 492 -14 496 -7 4 -168 48 -218 59 -8 2 -58 14 -110 28 -52 14 -106 28
-120 31 -14 2 -95 23 -180 45 -454 116 -677 173 -690 176 -8 2 -60 15 -115 30
-55 14 -111 28 -125 31 -14 3 -34 8 -45 11 -21 7 -27 9 -60 17 -11 2 -74 18
-140 34 -66 17 -131 33 -145 36 -23 4 -30 -4 -75 -82 -50 -86 -59 -109 -70
-191 -3 -25 -8 -47 -10 -50 -1 -3 -6 -22 -9 -41 -3 -19 -8 -46 -11 -60 -3 -14
-8 -38 -11 -55 -3 -16 -8 -33 -12 -37 -11 -10 -218 37 -307 70 -44 17 -125 50
-180 75 -55 24 -138 58 -185 76 l-85 32 -1 89 c-1 104 -12 126 -82 171 -46 29
-102 39 -102 17 0 -23 -14 4 -44 85 l-31 82 -74 37 c-59 30 -78 45 -98 79 -23
41 -40 61 -90 103 -26 22 -70 26 -132 13z"/>
</g>
</svg>
